<svg width="16" height="17" viewBox="0 0 16 17" fill="none" xmlns="http://www.w3.org/2000/svg">
<g clip-path="url(#clip0)">
<path d="M85 -10H-83C-94.0457 -10 -103 -1.0457 -103 10V362C-103 373.046 -94.0457 382 -83 382H85C96.0457 382 105 373.046 105 362V10C105 -1.0457 96.0457 -10 85 -10Z" stroke="#CACACA"/>
<path fill-rule="evenodd" clip-rule="evenodd" d="M13.1968 6.37521L7.99998 11.572L2.80324 6.37526C2.45798 6.03 1.89875 6.0302 1.55371 6.37524C1.20867 6.72028 1.20847 7.27951 1.55373 7.62477L8.00002 14.0711L14.4463 7.62476C14.7914 7.27972 14.7914 6.72028 14.4463 6.37523C14.1013 6.03017 13.5418 6.03017 13.1968 6.37521Z" fill="#FF4B3E"/>
</g>
<defs>
<clipPath id="clip0">
<rect width="16" height="17" fill="white"/>
</clipPath>
</defs>
</svg>
