<svg width="24" height="25" viewBox="0 0 24 25" fill="none" xmlns="http://www.w3.org/2000/svg">
<g clip-path="url(#clip0)">
<path fill-rule="evenodd" clip-rule="evenodd" d="M15.1318 14.1105H19.3924V17.5773C19.3924 18.0498 19.0069 18.4042 18.5402 18.4042H5.49539C5.00828 18.4042 4.64318 18.0304 4.64318 17.5773V14.1105H8.90331C9.26841 15.4698 10.547 16.4544 12.0074 16.4544C13.4682 16.4544 14.7463 15.4698 15.1318 14.1105ZM6.97621 8.83179C7.03698 8.69397 7.19935 8.59533 7.36172 8.59533H16.6126C16.775 8.59533 16.9374 8.69397 17.0186 8.83179L18.8645 12.5544H14.4216C13.9549 12.5544 13.6102 12.8895 13.6102 13.3421C13.6102 14.1893 12.8999 14.8983 12.0074 14.8983C11.1352 14.8983 10.405 14.2092 10.405 13.3421C10.405 12.8895 10.0598 12.5544 9.59315 12.5544H5.12983L6.97621 8.83179ZM20.8936 12.9088L18.4994 8.12286C18.1343 7.43329 17.424 7 16.633 7H7.36172C6.57028 7 5.86049 7.43329 5.49539 8.12286L3.10113 12.9287L3 13.0467V17.5773C3 18.9163 4.11571 20 5.49539 20H18.4994C19.879 20 20.9948 18.9163 20.9948 17.5773V13.2831C21.0152 13.1453 20.9748 13.0273 20.8936 12.9088Z" fill="#191716"/>
</g>
<defs>
<clipPath id="clip0">
<rect width="24" height="25" fill="white"/>
</clipPath>
</defs>
</svg>
