<?xml version="1.0" encoding="UTF-8"?>
<svg width="24px" height="25px" viewBox="0 0 24 25" version="1.1" xmlns="http://www.w3.org/2000/svg" xmlns:xlink="http://www.w3.org/1999/xlink">
    <title>634228A6-503C-4728-AC62-6A744B43DD13</title>
    <defs>
        <rect id="path-1" x="0" y="0" width="184" height="56" rx="5"></rect>
        <filter x="-4.6%" y="-11.6%" width="109.2%" height="130.4%" filterUnits="objectBoundingBox" id="filter-2">
            <feOffset dx="0" dy="2" in="SourceAlpha" result="shadowOffsetOuter1"></feOffset>
            <feGaussianBlur stdDeviation="2.5" in="shadowOffsetOuter1" result="shadowBlurOuter1"></feGaussianBlur>
            <feColorMatrix values="0 0 0 0 0   0 0 0 0 0   0 0 0 0 0  0 0 0 0.0991313374 0" type="matrix" in="shadowBlurOuter1"></feColorMatrix>
        </filter>
    </defs>
    <g id="🖥---Templates---Clientes" stroke="none" stroke-width="1" fill="none" fill-rule="evenodd">
        <g id="04_1-Gestor_de_pedidos" transform="translate(-256.000000, -247.000000)">
            <rect fill="#FFFFFF" x="0" y="0" width="1280" height="672"></rect>
            <g id="O-/-Card-/-Orders-/-Default" transform="translate(128.000000, 150.000000)">
                <g id="A-/-Box-/-Rounded-/-White---shadow" transform="translate(0.000000, 34.000000)" stroke="#CACACA">
                    <rect id="A-/-Box-/-Rounded-/-outline-grey" x="0" y="0" width="208" height="392" rx="20"></rect>
                </g>
                <g id="M-/-Lists-/-Order-/-Small-/-Default" transform="translate(8.000000, 74.000000)">
                    <g id="A-/-Box-/-primary-/-Branco---shadow">
                        <use fill="black" fill-opacity="1" filter="url(#filter-2)" xlink:href="#path-1"></use>
                        <use fill="#FFFFFF" fill-rule="evenodd" xlink:href="#path-1"></use>
                    </g>
                    <g id="A-/-Icon-/-Small--/-Clock-Copy-2" transform="translate(120.000000, 24.000000)" fill="#191716">
                        <path d="M16.8849286,8 L16.8849286,9.18273796 L18.3465714,9.18273796 L18.3465714,11.1538052 L17.4332143,11.1538052 L18.0543333,12.2974928 C18.2732857,12.2184158 18.5293333,12.1002884 18.7849286,12.1002884 C20.5388095,12.1002884 22,13.5983581 22,15.530375 C22,17.4623918 20.5754524,19 18.7849286,19 C16.9944048,19 15.5694048,17.4228533 15.5694048,15.530375 C15.5694048,14.5448414 15.9715714,13.6378966 16.5926905,13.0072332 L16.5926905,13.0072332 L16.0444048,11.8635456 L14.0715714,15.4908365 L9.54052381,15.4908365 C9.54052381,17.0679831 8.11552381,18.9599734 6.32545238,18.9599734 C4.53492857,18.9599734 3.10992857,17.4228533 3.10992857,15.530375 C3.10992857,14.1108942 3.81331593,12.5249487 5.55639462,12.3370313 L5.55639462,12.3370313 L3,12.3370313 L3,10.7598846 L6.98321429,10.7598846 C7.20216667,10.7598846 7.38492857,10.7598846 7.53104762,10.878012 L7.53104762,10.878012 L8.99269048,12.1002884 L10.7099286,10.0501442 C10.8194048,9.89247837 11.0021667,9.81340138 11.1849286,9.77435101 L11.1849286,9.77435101 L14.8021667,9.18273796 L15.4232857,9.18273796 L15.4232857,8 L16.8849286,8 Z M18.8215714,13.6774351 C17.9810476,13.6774351 17.5426905,14.3080985 17.3599286,14.5053029 C17.1771667,14.8206346 17.0676905,15.1755048 17.0676905,15.530375 C17.0676905,16.5554471 17.8349286,17.3833148 18.7849286,17.3833148 C19.6982857,17.3833148 20.4655238,16.5554471 20.5021667,15.530375 C20.5021667,14.5053029 19.7715714,13.6774351 18.8215714,13.6774351 Z M6.32545238,13.6774351 C5.375,13.6774351 4.60821429,14.5053029 4.60821429,15.530375 C4.60821429,16.5554471 5.375,17.3833148 6.32545238,17.3833148 C7.23880952,17.3833148 8.00604762,16.5554471 8.04269048,15.530375 C8.04269048,14.5053029 7.27545238,13.6774351 6.32545238,13.6774351 Z M14.5827619,10.8384735 L11.6965714,11.4300865 L10.2349286,13.1253606 L10.733,13.5192811 L13.121119,13.5192811 L14.5827619,10.8384735 Z M5.7738147,5 C6.44976077,5 7,5.54459285 7,6.21413184 L7,6.21413184 L7,8.78500646 C7,9.4549763 6.44976077,10 5.7738147,10 L5.7738147,10 L2.2261853,10 C1.55023923,10 1,9.4549763 1,8.78500646 L1,8.78500646 L1,6.21413184 C1,5.54459285 1.55023923,5 2.2261853,5 L2.2261853,5 Z M5.26011309,6.72339509 L2.73988691,6.72339509 L2.73988691,8.27660491 L5.26011309,8.27660491 L5.26011309,6.72339509 Z" id="Combined-Shape"></path>
                    </g>
                </g>
            </g>
        </g>
    </g>
</svg>