<svg width="24" height="25" viewBox="0 0 24 25" fill="none" xmlns="http://www.w3.org/2000/svg">
<g clip-path="url(#clip0)">
<path fill-rule="evenodd" clip-rule="evenodd" d="M15.3427 15.028C17.6188 15.028 19.4705 16.7872 19.4705 18.9494V21H4.5V19.0167C4.5 16.8173 6.38351 15.028 8.69868 15.028H15.3427ZM15.3427 17H8.69868C7.52807 17 6.57579 17.9047 6.57579 19.0167V19.028H17.3947V18.9494C17.3947 17.8745 16.4742 17 15.3427 17ZM12 4C14.4813 4 16.5 6.01871 16.5 8.5C16.5 10.9813 14.4813 13 12 13C9.5187 13 7.49999 10.9813 7.49999 8.5C7.49999 6.01871 9.5187 4 12 4ZM12 6.11571C10.6853 6.11571 9.6157 7.18528 9.6157 8.5C9.6157 9.81472 10.6853 10.8843 12 10.8843C13.3147 10.8843 14.3843 9.81472 14.3843 8.5C14.3843 7.18528 13.3147 6.11571 12 6.11571Z" fill="#191716"/>
</g>
<defs>
<clipPath id="clip0">
<rect width="24" height="25" fill="white"/>
</clipPath>
</defs>
</svg>
